<?xml version="1.0" encoding="UTF-8"?><svg id="Capa_2" xmlns="http://www.w3.org/2000/svg" viewBox="0 0 225.69 225.69"><defs><style>.cls-1{fill:#8da5d4;}.cls-2{fill:#fff;fill-rule:evenodd;}</style></defs><g id="Layer_1"><circle class="cls-1" cx="112.85" cy="112.84" r="112.85" transform="translate(-46.74 112.85) rotate(-45)"/><path class="cls-2" d="m47.34,71.71c-2.18,2.2-3.54,5.22-3.54,8.55v66.76c0,3.06,1.15,5.85,3.02,7.99.4-.98,1.06-2.06,2.1-3.21l35.18-38.96-35.18-38.96c-.69-.76-1.2-1.48-1.59-2.17Z"/><path class="cls-2" d="m117.37,132.08l56.23-62.27c.29-.32.49-.58.64-.82-1.39-.56-2.9-.87-4.49-.87H55.95c-1.17,0-2.31.18-3.38.49.15.29.41.69.87,1.2l56.23,62.27c2.08,2.31,5.62,2.31,7.7,0Z"/><path class="cls-2" d="m172.85,157.57c.92,0,1.46-.13,1.74-.24-.11-.28-.37-.76-.99-1.45l-34.77-38.5-16.96,18.78c-2.21,2.44-5.17,3.79-8.35,3.79s-6.15-1.35-8.35-3.79l-16.96-18.78-34.76,38.5c-.62.69-.88,1.17-.99,1.45.28.1.81.24,1.74.24h118.66Z"/><path class="cls-2" d="m181.88,80.26c0-2.91-1.03-5.58-2.75-7.68-.3.42-.64.85-1.04,1.3l-35.18,38.96,35.18,38.96c.68.76,1.2,1.48,1.59,2.16,1.38-1.97,2.2-4.36,2.2-6.94v-66.76Z"/></g></svg>