<?xml version="1.0" encoding="UTF-8"?><svg id="Capa_2" xmlns="http://www.w3.org/2000/svg" viewBox="0 0 219.32 219.32"><defs><style>.cls-1{fill:#fff;}.cls-2{fill:#8da5d4;}</style></defs><g id="ELEMENTS"><circle class="cls-2" cx="109.66" cy="109.66" r="109.66"/><path class="cls-1" d="m143.7,68.18c-4.16,0-7.54,3.37-7.54,7.54s3.37,7.54,7.54,7.54,7.54-3.37,7.54-7.54-3.37-7.54-7.54-7.54Z"/><path class="cls-1" d="m110.19,77.84c-17.46,0-31.66,14.2-31.66,31.66s14.2,31.66,31.66,31.66,31.66-14.2,31.66-31.66-14.2-31.66-31.66-31.66Zm0,51.95c-11.18,0-20.28-9.1-20.28-20.28s9.1-20.28,20.28-20.28,20.28,9.1,20.28,20.28-9.1,20.28-20.28,20.28Z"/><path class="cls-1" d="m135.33,173.8h-51.33c-21.3,0-38.62-17.32-38.62-38.62v-51.34c0-21.3,17.32-38.62,38.62-38.62h51.33c21.3,0,38.62,17.32,38.62,38.62v51.34c0,21.3-17.33,38.62-38.62,38.62Zm-51.33-116.48c-14.63,0-26.52,11.9-26.52,26.52v51.34c0,14.63,11.9,26.52,26.52,26.52h51.33c14.63,0,26.53-11.9,26.53-26.52v-51.34c0-14.63-11.9-26.52-26.53-26.52h-51.33Z"/></g></svg>