<?xml version="1.0" encoding="UTF-8"?><svg id="Capa_2" xmlns="http://www.w3.org/2000/svg" viewBox="0 0 219.32 219.32"><defs><style>.cls-1{fill:#fff;}.cls-2{fill:#8da5d4;}</style></defs><g id="ELEMENTS"><circle class="cls-2" cx="109.66" cy="109.66" r="109.66"/><path class="cls-1" d="m63.67,89.24h21.24v68.23h-21.24v-68.23Zm10.62-33.9c6.79,0,12.3,5.51,12.3,12.29s-5.5,12.31-12.3,12.31-12.31-5.52-12.31-12.31,5.5-12.29,12.31-12.29"/><path class="cls-1" d="m98.22,89.24h20.34v9.33h.28c2.84-5.37,9.75-11.02,20.08-11.02,21.47,0,25.43,14.12,25.43,32.5v37.42h-21.19v-33.17c0-7.92-.15-18.09-11.02-18.09s-12.72,8.62-12.72,17.51v33.75h-21.2v-68.23Z"/></g></svg>