<?xml version="1.0" encoding="UTF-8"?>
<svg id="Capa_2" data-name="Capa 2" xmlns="http://www.w3.org/2000/svg" viewBox="0 0 2625.59 447">
  <defs>
    <style>
      .cls-1 {
        fill: #7a949b;
      }
    </style>
  </defs>
  <g id="Capa_1-2" data-name="Capa 1">
    <g>
      <path class="cls-1" d="m0,429.6h52.8L214.8,0h14.4l163.2,429.6h53.4v8.4h-184.8v-8.4h66.6l-63-166.8H125.4l-63,166.8h66.6v8.4H0v-8.4ZM195,79.8l-66,174.6h132l-66-174.6Z"/>
      <path class="cls-1" d="m628.2,10.8h286.2l-251.4,418.8h132c20,0,35.4-2.9,46.2-8.7,10.8-5.79,20.4-12.69,28.8-20.7,8.79-8,17.79-20.19,27-36.6,9.2-16.4,15.99-35.4,20.4-57h6.6v131.4h-331.8L842.4,19.2h-93c-32.4,0-57.6,8.5-75.6,25.5-18,17.01-31,40.5-39,70.5h-6.6V10.8Z"/>
      <path class="cls-1" d="m1086.6,10.8h193.2v8.4h-66.6v289.8c0,24,2.1,44.31,6.3,60.9,4.2,16.6,10.5,30,18.9,40.2,8.4,10.2,18.8,17.5,31.2,21.9,12.39,4.41,26.6,6.6,42.6,6.6,22.4,0,42.2-3.3,59.4-9.9,17.19-6.6,32-18.3,44.4-35.1,3.99-5.19,7.5-10.4,10.5-15.6,3-5.19,5.6-11.3,7.8-18.3,2.19-6.99,3.9-15.39,5.1-25.2,1.2-9.8,1.8-21.9,1.8-36.3V19.2h-66.6v-8.4h142.2v8.4h-66.6v291c0,16.8-1.8,32.1-5.4,45.9-3.6,13.8-11.01,28.11-22.2,42.9-10.8,14.4-25.8,26.01-45,34.8-19.2,8.79-44.61,13.2-76.2,13.2-48,0-84.7-11.79-110.1-35.4-25.41-23.6-38.1-59.79-38.1-108.6V19.2h-66.6v-8.4Z"/>
      <path class="cls-1" d="m1667.39,429.6h66.6V19.2h-66.6v-8.4h193.2v8.4h-66.6v410.4h106.8c35.19,0,62.79-11,82.8-33,20-21.99,34.59-51.99,43.8-90h6.6v131.4h-366.6v-8.4Z"/>
      <path class="cls-1" d="m2179.79,429.6h52.8L2394.59,0h14.4l163.2,429.6h53.4v8.4h-184.8v-8.4h66.6l-63-166.8h-139.2l-63,166.8h66.6v8.4h-129v-8.4Zm195-349.8l-66,174.6h132l-66-174.6Z"/>
    </g>
  </g>
</svg>